<?xml version="1.0" encoding="UTF-8"?>
<svg id="Layer_1" data-name="Layer 1" xmlns="http://www.w3.org/2000/svg" width="5.6in" height="4.12in" viewBox="0 0 403 297">
  <defs>
    <style>
      .cls-1 {
        fill: #787878;
      }

      .cls-1, .cls-2, .cls-3, .cls-4, .cls-5, .cls-6, .cls-7, .cls-8, .cls-9, .cls-10, .cls-11, .cls-12, .cls-13, .cls-14, .cls-15, .cls-16, .cls-17, .cls-18, .cls-19 {
        stroke-width: 0px;
      }

      .cls-2 {
        fill: #282828;
      }

      .cls-3 {
        fill: #7b7b7b;
      }

      .cls-4 {
        fill: #737373;
      }

      .cls-5 {
        fill: #040404;
      }

      .cls-6 {
        fill: #030303;
      }

      .cls-7 {
        fill: #212121;
      }

      .cls-8 {
        fill: #7a7a7a;
      }

      .cls-9 {
        fill: #7c7c7c;
      }

      .cls-10 {
        fill: #000;
      }

      .cls-11 {
        fill: #424242;
      }

      .cls-12 {
        fill: #0f0f0f;
      }

      .cls-13 {
        fill: #050505;
      }

      .cls-14 {
        fill: #0c0c0c;
      }

      .cls-15 {
        fill: #6c6c6c;
      }

      .cls-16 {
        fill: #fff;
      }

      .cls-17 {
        fill: #020202;
      }

      .cls-18 {
        fill: #0b0b0b;
      }

      .cls-19 {
        fill: #080808;
      }
    </style>
  </defs>
  <rect class="cls-10" width="403" height="297"/>
  <path class="cls-16" d="M16.57,286.66c-.94-7.91-1.88-15.81-2.82-23.72v-19.3l7.9-15.56c3.79-2.98,7.59-5.97,11.38-8.95,2.6-4.74,5.21-9.49,7.81-14.23,5.06-5.11,10.12-10.22,15.19-15.33l28.15-11.68,9.11-10.51,20.55-5.61,26.11-1.71v-42.98s-3.01-2.9-3.01-2.9l-5.68-8.19-.84-12.44.33-6.56,4.63-6.56,9.13-13.95,7.76-25.3,36.93-20.03,21.17-4.9,14.55,8.65,32.64,4.19,14.91,6.98,6.98,10.33v9.96l-1.52,14.32-6.58,8.09-2.89,6.98-2.43,16.22.3,16.18-2.79,13.09-3.48,12.84,1.81,9.5-3.07,10.39-1.24,4.23,4.32,1.71,10.87,1.51,6.7-3.22h19.81l17.86,5.92,16.27,6.55,3.27,6.66,2.79,8.85,4.74,5.94,7.81,4.74,7.81.84,5.02,4.74,7.81,9.37,6.98,4.89,2.3,4.31,6.92,7.54v5.43l3.06,8.37-1.12,5.58,1.12,12.56c-1.02,4.5-2.04,9-3.06,13.51"/>
  <g>
    <path class="cls-11" d="M394.07,282.87c1.83,4.95-2.3,2.85-3.75,2.87-40.8.56-81.6,1.05-122.4,1.41-81.61.72-163.22,1.31-244.83,2.08-8.49.08-12.49-2.83-12.27-11.95.19-8.2.58-16.27,2.46-24.25.85-3.61.89-7.11.07-10.83-1.48-6.71,1.9-11.44,7.85-13.9,6.12-2.53,8.24-6.95,10.51-13.02,3.57-9.59,10.56-17.64,19.63-22.95,14.32-8.38,27.77-18.2,42.83-25.43,6.41-3.08,13.28-2.86,19.67-5.13,1.07.28,2.93.34,2.51,1.64-.35,1.08-2.05,2.04-3.35,2.46-11.81,3.78-23.22,8.47-33.86,14.9-1.51.9-2.77,2.21-4.14,3.33-9.01,6.1-18.4,11.72-26.87,18.5-4.78,3.83-9.59,9.01-11.57,14.58-2.5,7.06-6.89,11.05-12.83,14.31-2.88,1.59-5.97,3.61-5.68,7.01,1.23,14.29-3.15,28.5-.37,42.83.54,2.78,1.24,3.59,3.93,3.54,19.79-.36,39.58-.61,59.37-.89,29.58-.21,59.16-.41,88.74-.66,1.05-.01,2.11-.57,3.16-.87-.61-.89-1.03-2.17-1.87-2.6-11.06-5.52-12.36-15.82-13.37-26.44-1.31-13.89-8.23-25.69-14.78-37.55-1.17-2.12-1.83-3.77-.86-5.95,3.35.14,5.76,2.04,7.15,4.76,6.42,12.5,13.87,24.57,14.77,39.24.48,7.91,1.32,15.87,9.82,20.32,2.22,1.17,3.7,4.17,4.97,6.61.8,1.56,1.42,2.3,3.22,2.27,24.41-.41,48.82-.78,73.24-1.08,3.01-.03,2.09-.83,1.19-2.71-2.9-6.11-8.51-10.87-9.31-17.99-1.64-14.63,1.27-29.1,1.71-43.66.05-1.89.46-3.63,2.1-4.83,2.35.3,2.96,1.98,2.94,3.95-.13,8.95-.07,17.91-.57,26.84-.49,8.63-.71,16.95,5.54,24.05,2.58,2.93,3.99,6.64,3.25,10.67-.55,3.03.63,3.73,3.4,3.68,19.64-.36,39.29-.61,58.93-.93,1.61-.03,3.64.16,3.28-2.49-1.92-14-1.11-29.31-17.61-36.28-2.42-1.03-4.72-2.47-6.87-4.02-19.27-13.88-27.29-33.92-30.5-56.48-.64-4.52.09-9.57-7.25-8.28-1.98.35-2.96-1.82-3.52-3.66,19.44-4.27,38.73-6.63,58,1.44,10.65,4.46,19.52,9.61,22.66,22.04,1.53,6.03,6.77,10.1,13.69,10.92,5.86.7,9.86,4.22,13.07,9.03,2.31,3.44,5.33,6.26,8.49,9.03,3.63,3.2,6.86,6.51,9.43,10.16l-2.46,1.63c-1.7-2.48-3.86-4.62-6.28-6.37-5.28-3.85-10.11-7.96-14.72-12.51-1.72-1.7-3.93-3.93-6.02-4.05-14.36-.87-19.99-10.75-24.18-22.39-.83-2.3-.91-5.2-3.41-6.44-15.23-7.57-30.95-12.93-48.4-10.31-2.85.43-4.29,1.5-3.74,4.45,2.28,12.28,2.06,25.01,11.76,35.3,6.84,7.25,11,17.53,20.12,22.21,16.15,8.28,23.03,21.15,22.61,38.65-.16,6.51,1.93,9.91,9.3,8.97,5.39-.69,10.93-.13,16.41-.13v.47c6.65,0,13.32.38,19.93-.1,6.04-.45,11.37-1.77,10.94-9.77l2.9-.13c.18,3.66.77,7.32,2.09,10.88Z"/>
    <path class="cls-11" d="M387.22,232.51c4.48,6.36,6.9,13.74,5.78,23.27-.61,5.21-1.28,10.72-1.02,16.21l-2.9.13c-.02-.31-.04-.63-.08-.96-.88-8.53-.26-17.2-.52-25.81-.13-4.24-1.53-8.01-3.72-11.21l2.46-1.63Z"/>
    <path class="cls-9" d="M327.63,278.61c.36,2.65-1.67,2.46-3.28,2.49-19.64.32-39.29.57-58.93.93-2.77.05-3.95-.65-3.4-3.68.74-4.03-.67-7.74-3.25-10.67-6.25-7.1-6.03-15.42-5.54-24.05.5-8.93.44-17.89.57-26.84.02-1.97-.59-3.65-2.94-3.95-.3-1.97-.6-3.93-.9-5.9,4.69-7.51,6.11-15.85,7.3-24.26.5-3.51.96-7.04,1.6-10.52.32-1.75.62-3.51.93-5.27.17,1.37.21,2.82,2.09,3,.56,1.84,1.54,4.01,3.52,3.66,7.34-1.29,6.61,3.76,7.25,8.28,3.21,22.56,11.23,42.6,30.5,56.48,2.15,1.55,4.45,2.99,6.87,4.02,16.5,6.97,15.69,22.28,17.61,36.28Z"/>
    <path class="cls-2" d="M282.07,48.63c.07,6.63-.66,13.28-1.1,19.92-.16,2.38-.83,4.39-3.97,3.46.04-6.63-.12-13.27.17-19.89.38-8.71-4.31-13.5-11.81-16.46-10.81-4.27-22.05-6.42-33.63-6.61-6.95-.11-13.58-.6-19.01-5.8-3.16-3.03-6.96-2.49-10.75-.91-10.13,4.22-20.53,7.91-30.39,12.7-9.94,4.84-19.06,11.07-23.15,22.23-.42,1.15-1.16,2.72.29,3.52.41.22,1.83-1.07,2.59-1.86,6.72-6.89,14.48-11.73,23.66-15.2,21.83-8.25,44.32-5.89,66.72-5.72,14.32.1,23.56,7.96,29.27,20.35,2.69,5.85-1.6,13.32,3.78,18.79.31,1.11,1.11,3.08.87,3.22-5.12,2.91-6.84,6.75-7.19,10.88l-2.19-.17c.1-1.53.23-3.05.39-4.58.66-6.48,1.3-11.73-1.4-17.7-4.21-9.27-10.68-13.03-20.51-10.95-7.89,1.66-16.13,1.22-23.83,4.13-1.02.38-3.04.12-3.56-.6-1.13-1.56.6-2.59,1.59-3.65,1.11-1.2,2.2-2.42,3.3-3.63,1.28-.89,3.36-1.87,3.95-.45,1.87,4.5,4.64,2.17,7.19,1.39,2.68-.82,5.08-1.82,8.05-.31,1.6.82,4.52-.09,5.03-1.9.52-1.83-2.08-2.26-3.58-2.56-7.13-1.43-14.34-2.21-21.62-1.44-1.42.16-3.78.36-4.03,1.1-.69,2.08,2.49,1.56,2.97,3.2-3.8,1.22-8,4.03-9.42-2.89-.38-1.88-2.21-.87-3.39-.78-10.55.8-20.39,4.47-30.34,7.64-8.17-1.62-12.21,4.92-17.5,8.93-.65.49-.83,1.61-1.22,2.44.94-.13,1.91-.12,2.8-.4,5.25-1.61,11.63-.87,14.77-6.96,1.42,4.8-.62,9.29-4.9,9.51-5.52.28-10.63,2.15-16.02,2.44-4.93.27-8.17,2.4-8.92,7.44-.86,5.77-5.18,6.9-9.18,5.2-3.81-1.62-3.97.2-3.95,2.46.07,8.97-3.67,18.63,4.4,26.3.29.27.1,1.06.13,1.61-.96-.03-2.11.26-2.85-.16-4.13-2.34-5.27-6.62-5.24-10.7.08-8.72-.1-17.41,4.1-25.77,2.16-4.31,1.9-9.92,2.37-14.98,1.5-16.25,10.7-27.54,24.5-34.4,12.88-6.4,26.7-10.95,40.24-15.96,6.85-2.54,13.46-2.06,18.57,4.17,2.38,2.91,5.78,3.1,9.11,3.18,13.91.34,27.41,2.75,40.24,8.24,8.27,3.54,13.5,9.66,13.6,18.94ZM267.35,59.65c-.06-.75.15-1.66-.2-2.23-5.3-8.53-12.24-15.19-22.66-16.05-8.41-.69-16.93-.14-25.4-.14-9.51-.79-19.03-.75-28.3,1.65-13.54,3.51-27.18,7.03-36.88,18.32-.74.87-2.37,1.57-1.54,3.28.93-.62,1.88-1.21,2.77-1.87,6.8-4.99,13.26-10.15,21.48-13.27,14.43-5.47,29.69-3.44,44.29-6.54,17.23-1.25,32.63,2.73,44.89,15.68.44.47,1.03.78,1.55,1.17Z"/>
    <path class="cls-3" d="M265.36,35.66c7.5,2.96,12.19,7.75,11.81,16.46-.29,6.62-.13,13.26-.17,19.89-.75,1.71-1.51,3.43-2.26,5.14-5.38-5.47-1.09-12.94-3.78-18.79-5.71-12.39-14.95-20.25-29.27-20.35-22.4-.17-44.89-2.53-66.72,5.72-9.18,3.47-16.94,8.31-23.66,15.2-.76.79-2.18,2.08-2.59,1.86-1.45-.8-.71-2.37-.29-3.52,4.09-11.16,13.21-17.39,23.15-22.23,9.86-4.79,20.26-8.48,30.39-12.7,3.79-1.58,7.59-2.12,10.75.91,5.43,5.2,12.06,5.69,19.01,5.8,11.58.19,22.82,2.34,33.63,6.61Z"/>
    <path class="cls-10" d="M268.42,91.25c-.46,5.43,1.44,11.37,1.11,16.39-.7,10.32-5.17,19.61-5.41,29.56-.24,10.17.23,20.23-4.33,29.69-.31,1.76-.61,3.52-.93,5.27-.64,3.48-1.1,7.01-1.6,10.52l-2.95-.42c.18-1.27.32-2.58.41-3.91.48-7.49,1.53-14.89,3.51-22.15.72-2.62,3.52-5.74,1.17-7.86-2.04-1.83-4.72,1.28-7.11,2.17-11.11,4.14-19.37,2.96-23.36-3.58,4.53-3.08,8.99.28,13.38.55,11.44.72,15.11-2.63,18.64-13.42,4.66-14.18,4.2-28.61,5.28-42.98l2.19.17Z"/>
    <path class="cls-4" d="M267.15,57.42c.35.57.14,1.48.2,2.23-.52-.39-1.11-.7-1.55-1.17-12.26-12.95-27.66-16.93-44.89-15.68-.6-.53-1.21-1.05-1.82-1.57,8.47,0,16.99-.55,25.4.14,10.42.86,17.36,7.52,22.66,16.05Z"/>
    <path class="cls-3" d="M259.4,148.34c2.35,2.12-.45,5.24-1.17,7.86-1.98,7.26-3.03,14.66-3.51,22.15-.09,1.33-.23,2.64-.41,3.91-2.8,19.04-16.48,30.96-30.33,42.67-1.52,1.28-4.76,1.94-6.58,1.24-10.23-3.91-15.92,2.94-22.02,8.78-7.23,6.93-21.19,3.19-23.9-6.4-.56-1.98-1.6-4.37-3.18-5.42-13.79-9.1-20.1-21.64-18.8-38.19.49-6.29-.81-12.27-5.54-17.04-2.76-2.78-3.23-5.95-1.5-9.59,3.75-7.86,1.18-15.71-.25-23.55-.3-1.62-.85-3.28-.7-4.86.11-1.13,1.1-3.02,1.85-3.09,2.04-.21,1.19,1.81,1.49,2.94.5,1.9.5,4.13,1.55,5.64,5.55,8.08,34.15,18,43.91,15.42.63-.16,1.14-.81,1.7-1.23-1.35-.5-2.71-1-4.06-1.5,2.29-.83,4.96.83,7.08-1.1,3.61,1.14,7.33,1.64,10.65,3.97,6.92,4.85,12.56,2.81,15.57-5.12,2.56.37,5.12.74,7.68,1.1,3.99,6.54,12.25,7.72,23.36,3.58,2.39-.89,5.07-4,7.11-2.17ZM241.99,165.62c.26-.46.24-1.31-.01-1.77-2.7-4.82-7.53-1.7-11.25-2.86-2.72-.83-3.67,1.5-3.7,3.97-.7.32-1.41.63-2.11.95-.64-2.43-1.08-5.28-3.92-5.91-8.93-1.98-17.93-3.8-27.15-3.17-3.39.24-5.05,1.92-2.51,5.29-6.3-.81-12.56-1.26-18.43,1.96-.32-.08-.64-.12-.96-.14.03-2.51-.53-5.84-3.56-3.37-3.68,3.01-2.96,8.19-2.93,12.66.03,3.2,1.01,5.62,4.6,6.77,5.2,1.67,9.6,4.52,11.51,10.18.72,2.13-.27,6.34,3.06,5.75,3.07-.53-.43-4.02.57-6.08.59-.29,1.18-.59,1.77-.88-.25,2.3.64,4.14,2.09,5.9,6.65,8.05,16.92,7.83,23.85-.94,2.8-3.55,5.24-5.08,10.34-5.31,13.92-.62,13.87-14.12,18.74-23Z"/>
    <path class="cls-14" d="M251.49,114.49c2.76.26,6.3,1.47,6.1,3.91-.26,3.15-3.84,1.89-6.21,1.68-1.15-.11-2.32-.09-3.46-.22-2.46-.28-6.56.92-6.51-2.44.05-3.91,4.17-3.17,7.11-2.95.99,0,1.99-.08,2.97.02Z"/>
    <path class="cls-11" d="M254.31,182.26l2.95.42c-1.19,8.41-2.61,16.75-7.3,24.26-3.97,3.16-6.79,7.14-9.08,11.67-6.56,12.96-16.93,17.57-30.47,13.75-2.25-.63-3.34-.05-5.31,1.61-7.78,6.59-17.01,10.14-27.38,8.85-4.43-.55-7.92-2.92-9.08-7.98-.79-3.47-1.8-7.14-5.78-8.78-4.64-1.91-7.74-5.55-10.47-9.63-2.74-4.11-5.14-8.56-9.64-11.17-.52-2.75-1.58-5.53-1.47-8.26.42-10.24.14-20.05-7.29-28.4-1.7-1.91-1.34-5.65-1.93-8.54,3.75-7.98,5.48-15.41,1.49-24.58-2.61-5.99,1.61-13.31,6.49-18.33,2.16-2.21,5.64-2.97,6.06,2.25.12,1.48.91,2.93.88,4.39-.12,7.42,2.48,12.44,10.67,13.04.93.07,2.32.55,2.64,1.23,5.9,12.62,17.54,9.21,27.66,10.02,1.35.5,2.71,1,4.06,1.5-.56.42-1.07,1.07-1.7,1.23-9.76,2.58-38.36-7.34-43.91-15.42-1.05-1.51-1.05-3.74-1.55-5.64-.3-1.13.55-3.15-1.49-2.94-.75.07-1.74,1.96-1.85,3.09-.15,1.58.4,3.24.7,4.86,1.43,7.84,4,15.69.25,23.55-1.73,3.64-1.26,6.81,1.5,9.59,4.73,4.77,6.03,10.75,5.54,17.04-1.3,16.55,5.01,29.09,18.8,38.19,1.58,1.05,2.62,3.44,3.18,5.42,2.71,9.59,16.67,13.33,23.9,6.4,6.1-5.84,11.79-12.69,22.02-8.78,1.82.7,5.06.04,6.58-1.24,13.85-11.71,27.53-23.63,30.33-42.67Z"/>
    <path class="cls-13" d="M251.28,103.34c1.57.3,3.26,1.92,2.69,3.68-.73,2.24-2.31.36-3.6.11-3.37-.65-6.79-1.67-9.65,1.58-1.33,1.5-3.15,1.72-4.96.44-2.78-1.96-5.71-1.15-8.61-.36-1.98.54-4.72,2.46-5.64-.2-.65-1.9,2.41-3.21,4.33-4.12,3.98-1.89,8.2-2.7,12.67-2.85,4.26.54,8.56.9,12.77,1.72Z"/>
    <path class="cls-1" d="M242.85,50.27c1.5.3,4.1.73,3.58,2.56-.51,1.81-3.43,2.72-5.03,1.9-2.97-1.51-5.37-.51-8.05.31-2.55.78-5.32,3.11-7.19-1.39-.59-1.42-2.67-.44-3.95.45-.68-.32-1.36-.65-2.04-.97-.48-1.64-3.66-1.12-2.97-3.2.25-.74,2.61-.94,4.03-1.1,7.28-.77,14.49.01,21.62,1.44Z"/>
    <path class="cls-19" d="M242.98,90.73c.47.26.88,1.72.72,1.84-4.79,3.63-10.97,2.08-14.37,3.99-3.82.54-5.78.04-6.11-2.08-.33-2.14,1.92-2.59,3.41-2.89,5.4-1.06,10.75-4.05,16.35-.86Z"/>
    <path class="cls-17" d="M241.98,163.85c.25.46.27,1.31.01,1.77-4.87,8.88-4.82,22.38-18.74,23-5.1.23-7.54,1.76-10.34,5.31-6.93,8.77-17.2,8.99-23.85.94-1.45-1.76-2.34-3.6-2.09-5.9,5.23-.2,6.28,6.37,12.31,6.54,9.06.25,12.34-4.68,15.17-11.42.62-1.45.25-3.72,2.36-3.99s1.96,1.77,2.34,3.15c.13.45.36,1.01.72,1.25,2.71,1.77,5.19.55,7.38-.99,4.54-3.2,9.05-6.47,7.64-13.24-.62-2.97-1.65-4.91-5.18-4.34-.82.13-1.78-.62-2.68-.97.03-2.47.98-4.8,3.7-3.97,3.72,1.16,8.55-1.96,11.25,2.86Z"/>
    <path class="cls-19" d="M236.07,133.32c-.28,1.16.1,3.09-1.13,2.43-3.76-2-6.42-5.24-7.32-9.5-.31-1.44.46-3.52,2.32-3.05,5.35,1.37,4.38,6.73,6.13,10.12Z"/>
    <path class="cls-17" d="M221,160c2.84.63,3.28,3.48,3.92,5.91-7.4,12.34-27.08,9.27-32.1.46.88-.46,1.77-.93,2.66-1.39.7.43,1.42.83,2.09,1.31,3.55,2.51,7.87,1.81,11.78,2.81.04,0,.21-.5.32-.77-3.13-.84-6.26-1.66-9.38-2.53-1.11-.31-2.19-.73-3.29-1.1-1.88-.86-3.77-1.72-5.66-2.58-2.54-3.37-.88-5.05,2.51-5.29,9.22-.63,18.22,1.19,27.15,3.17Z"/>
    <path class="cls-17" d="M220.42,117.6c.39,9.4,2.28,18.77.83,28.23-3.01,7.93-8.65,9.97-15.57,5.12-3.32-2.33-7.04-2.83-10.65-3.97-4.94-2.96-3.05-8.35-4.07-12.57-.63-2.58,2.7-2.65,4.91-2.4,2.73.3,3.79,1.87,3.01,4.49-.58,1.98-2.46,4.48.64,5.46,5.53,1.73,8.6,9.99,15.95,6.4,3.68-1.8,2.73-5.76,2.48-8.98-.55-7.07-1.27-14.12-2.11-21.16-.21-1.74-1.76-3.98.81-4.5,2.19-.45,3.69,1.88,3.77,3.88Z"/>
    <path class="cls-1" d="M219.09,41.23c.61.52,1.22,1.04,1.82,1.57-14.6,3.1-29.86,1.07-44.29,6.54-8.22,3.12-14.68,8.28-21.48,13.27-.89.66-1.84,1.25-2.77,1.87-.83-1.71.8-2.41,1.54-3.28,9.7-11.29,23.34-14.81,36.88-18.32,9.27-2.4,18.79-2.44,28.3-1.65Z"/>
    <path class="cls-15" d="M209.67,168.33c-.11.27-.28.77-.32.77-3.91-1-8.23-.3-11.78-2.81-.67-.48-1.39-.88-2.09-1.31.5-.09,1.01-.18,1.52-.28,1.1.37,2.18.79,3.29,1.1,3.12.87,6.25,1.69,9.38,2.53Z"/>
    <path class="cls-5" d="M198.85,105.87c.55,1.73.26,3.24-2.12,1.98-.83-.44-1.33-1.47-2.14-1.98-.66-.42-1.91-.91-2.3-.6-7.02,5.54-14.02-1.16-21,0-1.6.26-3.81.66-4.1-1.48-.36-2.65,2.29-1.66,3.64-2.08,2.68-.83,5.43-1.44,8.29-2.18,5.02,1.67,10.08,2.93,15.48,2.61,2.03-.12,3.61,1.71,4.25,3.72Z"/>
    <path class="cls-12" d="M196.76,90.84c.45.03,1.22,1.65,1.09,2.4-.22,1.33-1.46,1.78-2.67,1.14-4.19-2.22-8.73-2.35-13.3-2.72-1.79-.14-5.14.28-4.69-2.91.38-2.69,3.25-1.28,5.01-1.51,5.46-1.26,9.47,3.25,14.56,3.6Z"/>
    <path class="cls-6" d="M197,164.7c-.51.1-1.02.19-1.52.28-.89.46-1.78.93-2.66,1.39-5-.12-9.99-.19-14.98-.39-1.81-.07-4.12.87-4.93-1.9,5.87-3.22,12.13-2.77,18.43-1.96,1.89.86,3.78,1.72,5.66,2.58Z"/>
    <path class="cls-7" d="M187.38,122.9c2.03.9,2.02,2.18,1.57,3.19-1.03,2.3-.94,5.44-3.63,6.55-1.01.42-1.06-1.24-.71-2.21.91-2.5,1.84-4.99,2.77-7.53Z"/>
    <path class="cls-17" d="M185.2,189.85c-1,2.06,2.5,5.55-.57,6.08-3.33.59-2.34-3.62-3.06-5.75-1.91-5.66-6.31-8.51-11.51-10.18-3.59-1.15-4.57-3.57-4.6-6.77-.03-4.47-.75-9.65,2.93-12.66,3.03-2.47,3.59.86,3.56,3.37-2.22,6.09-3.39,11.39,4.76,14.61,4.51,1.79,8.19,5.64,8.49,11.3Z"/>
    <path class="cls-18" d="M184.36,115.85c.29,3.2-3.96,1.22-5.58,2.36-2.65-.65-6.05.58-6.34-3.03-.2-2.63,2.3-2.82,4.4-2.72,3.03.14,7.22.18,7.52,3.39Z"/>
    <path class="cls-8" d="M177.02,57.1c-.39,1.34-.77,2.67-1.15,4.01-3.14,6.09-9.52,5.35-14.77,6.96-.89.28-1.86.27-2.8.4.39-.83.57-1.95,1.22-2.44,5.29-4.01,9.33-10.55,17.5-8.93Z"/>
    <path class="cls-9" d="M171.01,279.85c.84.43,1.26,1.71,1.87,2.6-1.05.3-2.11.86-3.16.87-29.58.25-59.16.45-88.74.66.62-1.91,1.23-3.82,1.85-5.72,4.54-.37,6.08-3.77,6.95-7.4.88-3.7.96-7.58,1.76-11.31,5.4-24.92,3.96-48.79-10.27-70.9-1.58-2.46-2.8-4.49-6.09-3.52-.06-.34-.12-.69-.18-1.03,1.37-1.12,2.63-2.43,4.14-3.33,10.64-6.43,22.05-11.12,33.86-14.9,1.3-.42,3-1.38,3.35-2.46.42-1.3-1.44-1.36-2.51-1.64,5.73-4.16,12.17-.87,18.22-1.71.59,2.89.23,6.63,1.93,8.54,7.43,8.35,7.71,18.16,7.29,28.4-.11,2.73.95,5.51,1.47,8.26l-.75,4.65c-.97,2.18-.31,3.83.86,5.95,6.55,11.86,13.47,23.66,14.78,37.55,1.01,10.62,2.31,20.92,13.37,26.44Z"/>
    <path class="cls-17" d="M138.9,93.77c5.21.99,5.69,5.23,5.61,9.98-.75,1.84.8,6.62-2.43,5.88-5.17-1.2-5.91-6.85-6.51-11.59-.28-2.2.35-4.84,3.33-4.27Z"/>
    <path class="cls-11" d="M81.27,188.65c14.23,22.11,15.67,45.98,10.27,70.9-.8,3.73-.88,7.61-1.76,11.31-.87,3.63-2.41,7.03-6.95,7.4-1.76-1.9-.95-4.05-.55-6.12,3.32-17.01,5.95-34.11,4.75-51.49-.62-8.97-6.07-16.42-9.39-24.53-1.47-3.57-3.2-6.97-2.46-10.99,3.29-.97,4.51,1.06,6.09,3.52Z"/>
  </g>
</svg>